<mxfile modified="2022-05-05T03:00:43.552Z" host="app.diagrams.net" agent="5.0 (Windows NT 10.0; Win64; x64) AppleWebKit/537.36 (KHTML, like Gecko) Chrome/100.0.4896.127 Safari/537.36 Edg/100.0.1185.50" etag="xHxLd7NN4psidw5X_CA9" compressed="false" version="17.5.0" type="google">
  <diagram name="Development/Information Service/DDD Component Pattern" id="b5Dukf9UuNJf5in1JTq2">
    <mxGraphModel grid="1" page="1" gridSize="10" guides="1" tooltips="1" connect="1" arrows="1" fold="1" pageScale="1" pageWidth="827" pageHeight="1169" math="0" shadow="0">
      <root>
        <mxCell id="YOU5BtBW--oNC1GvZMYw-0" />
        <mxCell id="YOU5BtBW--oNC1GvZMYw-1" value="Diagram" parent="YOU5BtBW--oNC1GvZMYw-0" />
        <mxCell id="YOU5BtBW--oNC1GvZMYw-4" value="&amp;nbsp;Infrastructure Services&lt;br&gt;&lt;font style=&quot;font-size: 11px&quot;&gt;(Tech Domain)&lt;/font&gt;" style="html=1;outlineConnect=0;whiteSpace=wrap;fillColor=none;shape=mxgraph.archimate3.application;appType=comp;archiType=square;fontSize=12;align=left;strokeColor=#009999;" vertex="1" parent="YOU5BtBW--oNC1GvZMYw-1">
          <mxGeometry x="240" y="430" width="80" height="50" as="geometry" />
        </mxCell>
        <mxCell id="YOU5BtBW--oNC1GvZMYw-5" value="Shared&amp;nbsp;&lt;br&gt;(Models, DTOs)" style="html=1;outlineConnect=0;whiteSpace=wrap;fillColor=none;shape=mxgraph.archimate3.application;appType=comp;archiType=square;fontSize=12;align=left;strokeColor=#009999;" vertex="1" parent="YOU5BtBW--oNC1GvZMYw-1">
          <mxGeometry x="360" y="430" width="80" height="50" as="geometry" />
        </mxCell>
        <mxCell id="YOU5BtBW--oNC1GvZMYw-6" value="Domain Services&lt;br&gt;&lt;font style=&quot;font-size: 10px&quot;&gt;(Other Domains)&lt;/font&gt;" style="html=1;outlineConnect=0;whiteSpace=wrap;fillColor=none;shape=mxgraph.archimate3.application;appType=comp;archiType=square;fontSize=12;align=left;strokeColor=#009999;" vertex="1" parent="YOU5BtBW--oNC1GvZMYw-1">
          <mxGeometry x="480" y="430" width="80" height="50" as="geometry" />
        </mxCell>
        <mxCell id="YOU5BtBW--oNC1GvZMYw-7" value="Vendor &lt;br&gt;Libs&amp;nbsp;&amp;amp; 3rd party Service Clients" style="html=1;outlineConnect=0;whiteSpace=wrap;fillColor=none;shape=mxgraph.archimate3.application;appType=comp;archiType=square;fontSize=12;align=left;strokeColor=#009999;" vertex="1" parent="YOU5BtBW--oNC1GvZMYw-1">
          <mxGeometry x="240" y="520" width="80" height="50" as="geometry" />
        </mxCell>
        <mxCell id="YOU5BtBW--oNC1GvZMYw-8" value="Data Storage Services" style="html=1;outlineConnect=0;whiteSpace=wrap;fillColor=#f5f5f5;shape=mxgraph.archimate3.application;appType=comp;archiType=square;fontSize=12;align=left;strokeColor=#666666;opacity=30;fontColor=#808080;" vertex="1" parent="YOU5BtBW--oNC1GvZMYw-1">
          <mxGeometry x="160" y="590" width="80" height="50" as="geometry" />
        </mxCell>
        <mxCell id="YOU5BtBW--oNC1GvZMYw-9" value="Other Services" style="html=1;outlineConnect=0;whiteSpace=wrap;fillColor=#f5f5f5;shape=mxgraph.archimate3.application;appType=comp;archiType=square;fontSize=12;align=left;strokeColor=#666666;opacity=30;fontColor=#808080;" vertex="1" parent="YOU5BtBW--oNC1GvZMYw-1">
          <mxGeometry x="320" y="590" width="80" height="50" as="geometry" />
        </mxCell>
        <mxCell id="YOU5BtBW--oNC1GvZMYw-10" value="Application Services" style="html=1;outlineConnect=0;whiteSpace=wrap;fillColor=none;shape=mxgraph.archimate3.application;appType=comp;archiType=square;fontSize=12;align=left;strokeColor=#009999;" vertex="1" parent="YOU5BtBW--oNC1GvZMYw-1">
          <mxGeometry x="360" y="310" width="80" height="40" as="geometry" />
        </mxCell>
        <mxCell id="YOU5BtBW--oNC1GvZMYw-11" value="Service Facade&lt;br&gt;&lt;font style=&quot;font-size: 10px&quot;&gt;(Cross-Tier Protocol specific)&lt;/font&gt;" style="html=1;outlineConnect=0;whiteSpace=wrap;fillColor=none;shape=mxgraph.archimate3.application;appType=comp;archiType=square;fontSize=12;align=left;strokeColor=#009999;" vertex="1" parent="YOU5BtBW--oNC1GvZMYw-1">
          <mxGeometry x="360" y="200" width="80" height="60" as="geometry" />
        </mxCell>
        <mxCell id="YOU5BtBW--oNC1GvZMYw-19" value="" style="rounded=0;orthogonalLoop=1;jettySize=auto;html=1;endArrow=none;endFill=0;labelBackgroundColor=#ffffff;strokeColor=#000000;strokeWidth=1;fontSize=12;fontColor=#B3B3B3;exitX=0.5;exitY=0;exitDx=0;exitDy=0;exitPerimeter=0;" edge="1" parent="YOU5BtBW--oNC1GvZMYw-1" source="YOU5BtBW--oNC1GvZMYw-8" target="YOU5BtBW--oNC1GvZMYw-21">
          <mxGeometry relative="1" as="geometry">
            <mxPoint x="110" y="535" as="sourcePoint" />
            <mxPoint x="160" y="570" as="targetPoint" />
          </mxGeometry>
        </mxCell>
        <mxCell id="YOU5BtBW--oNC1GvZMYw-20" value="" style="rounded=0;orthogonalLoop=1;jettySize=auto;html=1;endArrow=halfCircle;endFill=0;entryX=0.5;entryY=0.5;entryDx=0;entryDy=0;endSize=6;strokeWidth=1;labelBackgroundColor=#ffffff;fontSize=12;fontColor=#B3B3B3;" edge="1" parent="YOU5BtBW--oNC1GvZMYw-1" source="YOU5BtBW--oNC1GvZMYw-7" target="YOU5BtBW--oNC1GvZMYw-21">
          <mxGeometry relative="1" as="geometry">
            <mxPoint x="150" y="535" as="sourcePoint" />
            <Array as="points">
              <mxPoint x="200" y="545" />
            </Array>
          </mxGeometry>
        </mxCell>
        <mxCell id="YOU5BtBW--oNC1GvZMYw-21" value="" style="ellipse;whiteSpace=wrap;html=1;fontFamily=Helvetica;fontSize=12;fontColor=#000000;align=center;strokeColor=#000000;fillColor=#ffffff;points=[];aspect=fixed;resizable=0;opacity=30;" vertex="1" parent="YOU5BtBW--oNC1GvZMYw-1">
          <mxGeometry x="195" y="565" width="10" height="10" as="geometry" />
        </mxCell>
        <mxCell id="YOU5BtBW--oNC1GvZMYw-22" value="" style="rounded=0;orthogonalLoop=1;jettySize=auto;html=1;endArrow=none;endFill=0;labelBackgroundColor=#ffffff;strokeColor=#000000;strokeWidth=1;fontSize=12;fontColor=#B3B3B3;exitX=0.5;exitY=0;exitDx=0;exitDy=0;exitPerimeter=0;" edge="1" parent="YOU5BtBW--oNC1GvZMYw-1" source="YOU5BtBW--oNC1GvZMYw-9" target="YOU5BtBW--oNC1GvZMYw-24">
          <mxGeometry relative="1" as="geometry">
            <mxPoint x="210" y="610" as="sourcePoint" />
            <mxPoint x="170" y="580" as="targetPoint" />
          </mxGeometry>
        </mxCell>
        <mxCell id="YOU5BtBW--oNC1GvZMYw-23" value="" style="rounded=0;orthogonalLoop=1;jettySize=auto;html=1;endArrow=halfCircle;endFill=0;endSize=6;strokeWidth=1;labelBackgroundColor=#ffffff;fontSize=12;fontColor=#B3B3B3;exitX=1;exitY=0.5;exitDx=0;exitDy=0;exitPerimeter=0;" edge="1" parent="YOU5BtBW--oNC1GvZMYw-1" source="YOU5BtBW--oNC1GvZMYw-7">
          <mxGeometry relative="1" as="geometry">
            <mxPoint x="505" y="556.5" as="sourcePoint" />
            <mxPoint x="360" y="569" as="targetPoint" />
            <Array as="points">
              <mxPoint x="360" y="545" />
            </Array>
          </mxGeometry>
        </mxCell>
        <mxCell id="YOU5BtBW--oNC1GvZMYw-24" value="" style="ellipse;whiteSpace=wrap;html=1;fontFamily=Helvetica;fontSize=12;fontColor=#000000;align=center;strokeColor=#000000;fillColor=#ffffff;points=[];aspect=fixed;resizable=0;opacity=30;" vertex="1" parent="YOU5BtBW--oNC1GvZMYw-1">
          <mxGeometry x="355" y="565" width="10" height="10" as="geometry" />
        </mxCell>
        <mxCell id="YOU5BtBW--oNC1GvZMYw-25" value="" style="rounded=0;orthogonalLoop=1;jettySize=auto;html=1;endArrow=none;endFill=0;labelBackgroundColor=#ffffff;strokeColor=#000000;strokeWidth=1;fontSize=10;fontColor=#B3B3B3;exitX=0.5;exitY=0;exitDx=0;exitDy=0;exitPerimeter=0;" edge="1" parent="YOU5BtBW--oNC1GvZMYw-1" source="YOU5BtBW--oNC1GvZMYw-11">
          <mxGeometry relative="1" as="geometry">
            <mxPoint x="540" y="290" as="sourcePoint" />
            <mxPoint x="400" y="180" as="targetPoint" />
          </mxGeometry>
        </mxCell>
        <mxCell id="YOU5BtBW--oNC1GvZMYw-26" value="" style="ellipse;whiteSpace=wrap;html=1;fontFamily=Helvetica;fontSize=12;fontColor=#000000;align=center;strokeColor=#000000;fillColor=#ffffff;points=[];aspect=fixed;resizable=0;opacity=30;" vertex="1" parent="YOU5BtBW--oNC1GvZMYw-1">
          <mxGeometry x="395" y="170" width="10" height="10" as="geometry" />
        </mxCell>
        <mxCell id="YOU5BtBW--oNC1GvZMYw-27" value="REST API &lt;br style=&quot;font-size: 12px;&quot;&gt;endpoints" style="text;html=1;align=center;verticalAlign=middle;resizable=0;points=[];;autosize=1;fontSize=12;fontColor=#666666;" vertex="1" parent="YOU5BtBW--oNC1GvZMYw-1">
          <mxGeometry x="405" y="165" width="70" height="30" as="geometry" />
        </mxCell>
        <mxCell id="YOU5BtBW--oNC1GvZMYw-44" value="" style="rounded=0;orthogonalLoop=1;jettySize=auto;html=1;endArrow=none;endFill=0;fontSize=12;fontColor=#666666;exitX=0.5;exitY=0;exitDx=0;exitDy=0;exitPerimeter=0;" edge="1" parent="YOU5BtBW--oNC1GvZMYw-1" source="YOU5BtBW--oNC1GvZMYw-10" target="YOU5BtBW--oNC1GvZMYw-46">
          <mxGeometry relative="1" as="geometry">
            <mxPoint x="40" y="245" as="sourcePoint" />
          </mxGeometry>
        </mxCell>
        <mxCell id="YOU5BtBW--oNC1GvZMYw-45" value="" style="rounded=0;orthogonalLoop=1;jettySize=auto;html=1;endArrow=halfCircle;endFill=0;entryX=0.5;entryY=0.5;entryDx=0;entryDy=0;endSize=6;strokeWidth=1;fontSize=12;fontColor=#666666;exitX=0.5;exitY=1;exitDx=0;exitDy=0;exitPerimeter=0;" edge="1" parent="YOU5BtBW--oNC1GvZMYw-1" source="YOU5BtBW--oNC1GvZMYw-11" target="YOU5BtBW--oNC1GvZMYw-46">
          <mxGeometry relative="1" as="geometry">
            <mxPoint x="80" y="245" as="sourcePoint" />
          </mxGeometry>
        </mxCell>
        <mxCell id="YOU5BtBW--oNC1GvZMYw-46" value="" style="ellipse;whiteSpace=wrap;html=1;fontFamily=Helvetica;fontSize=12;fontColor=#000000;align=center;strokeColor=#000000;fillColor=#ffffff;points=[];aspect=fixed;resizable=0;" vertex="1" parent="YOU5BtBW--oNC1GvZMYw-1">
          <mxGeometry x="395" y="280" width="10" height="10" as="geometry" />
        </mxCell>
        <mxCell id="YOU5BtBW--oNC1GvZMYw-48" value="orchestrate" style="rounded=0;orthogonalLoop=1;jettySize=auto;html=1;endArrow=none;endFill=0;fontSize=12;fontColor=#666666;exitX=0.5;exitY=0;exitDx=0;exitDy=0;exitPerimeter=0;" edge="1" parent="YOU5BtBW--oNC1GvZMYw-1" source="YOU5BtBW--oNC1GvZMYw-4" target="YOU5BtBW--oNC1GvZMYw-50">
          <mxGeometry relative="1" as="geometry">
            <mxPoint x="390" y="385" as="sourcePoint" />
          </mxGeometry>
        </mxCell>
        <mxCell id="YOU5BtBW--oNC1GvZMYw-49" value="" style="rounded=0;orthogonalLoop=1;jettySize=auto;html=1;endArrow=halfCircle;endFill=0;entryX=0.5;entryY=0.5;entryDx=0;entryDy=0;endSize=6;strokeWidth=1;fontSize=12;fontColor=#666666;exitX=0.5;exitY=1;exitDx=0;exitDy=0;exitPerimeter=0;" edge="1" parent="YOU5BtBW--oNC1GvZMYw-1" source="YOU5BtBW--oNC1GvZMYw-10" target="YOU5BtBW--oNC1GvZMYw-50">
          <mxGeometry relative="1" as="geometry">
            <mxPoint x="430" y="385" as="sourcePoint" />
          </mxGeometry>
        </mxCell>
        <mxCell id="YOU5BtBW--oNC1GvZMYw-50" value="" style="ellipse;whiteSpace=wrap;html=1;fontFamily=Helvetica;fontSize=12;fontColor=#000000;align=center;strokeColor=#000000;fillColor=#ffffff;points=[];aspect=fixed;resizable=0;" vertex="1" parent="YOU5BtBW--oNC1GvZMYw-1">
          <mxGeometry x="345" y="380" width="10" height="10" as="geometry" />
        </mxCell>
        <mxCell id="YOU5BtBW--oNC1GvZMYw-57" value="orchestrate" style="rounded=0;orthogonalLoop=1;jettySize=auto;html=1;endArrow=none;endFill=0;fontSize=12;fontColor=#666666;exitX=0.5;exitY=0;exitDx=0;exitDy=0;exitPerimeter=0;" edge="1" parent="YOU5BtBW--oNC1GvZMYw-1" source="YOU5BtBW--oNC1GvZMYw-6" target="YOU5BtBW--oNC1GvZMYw-59">
          <mxGeometry relative="1" as="geometry">
            <mxPoint x="390" y="385" as="sourcePoint" />
          </mxGeometry>
        </mxCell>
        <mxCell id="YOU5BtBW--oNC1GvZMYw-58" value="" style="rounded=0;orthogonalLoop=1;jettySize=auto;html=1;endArrow=halfCircle;endFill=0;entryX=0.5;entryY=0.5;entryDx=0;entryDy=0;endSize=6;strokeWidth=1;fontSize=12;fontColor=#666666;" edge="1" parent="YOU5BtBW--oNC1GvZMYw-1" target="YOU5BtBW--oNC1GvZMYw-59">
          <mxGeometry relative="1" as="geometry">
            <mxPoint x="400" y="350" as="sourcePoint" />
          </mxGeometry>
        </mxCell>
        <mxCell id="YOU5BtBW--oNC1GvZMYw-59" value="" style="ellipse;whiteSpace=wrap;html=1;fontFamily=Helvetica;fontSize=12;fontColor=#000000;align=center;strokeColor=#000000;fillColor=#ffffff;points=[];aspect=fixed;resizable=0;" vertex="1" parent="YOU5BtBW--oNC1GvZMYw-1">
          <mxGeometry x="450" y="380" width="10" height="10" as="geometry" />
        </mxCell>
        <mxCell id="YOU5BtBW--oNC1GvZMYw-63" value="Use" style="endArrow=open;endSize=12;dashed=1;html=1;fontSize=12;fontColor=#666666;exitX=0.5;exitY=1;exitDx=0;exitDy=0;exitPerimeter=0;" edge="1" parent="YOU5BtBW--oNC1GvZMYw-1" source="YOU5BtBW--oNC1GvZMYw-10" target="YOU5BtBW--oNC1GvZMYw-5">
          <mxGeometry width="160" relative="1" as="geometry">
            <mxPoint x="330" y="380" as="sourcePoint" />
            <mxPoint x="490" y="380" as="targetPoint" />
          </mxGeometry>
        </mxCell>
        <mxCell id="YOU5BtBW--oNC1GvZMYw-64" value="Use" style="endArrow=open;endSize=12;dashed=1;html=1;fontSize=12;fontColor=#666666;exitX=1;exitY=0.5;exitDx=0;exitDy=0;exitPerimeter=0;entryX=0;entryY=0.5;entryDx=0;entryDy=0;entryPerimeter=0;" edge="1" parent="YOU5BtBW--oNC1GvZMYw-1" source="YOU5BtBW--oNC1GvZMYw-4" target="YOU5BtBW--oNC1GvZMYw-5">
          <mxGeometry width="160" relative="1" as="geometry">
            <mxPoint x="410" y="360" as="sourcePoint" />
            <mxPoint x="410" y="440" as="targetPoint" />
          </mxGeometry>
        </mxCell>
        <mxCell id="YOU5BtBW--oNC1GvZMYw-65" value="Use" style="endArrow=open;endSize=12;dashed=1;html=1;fontSize=12;fontColor=#666666;exitX=0;exitY=0.5;exitDx=0;exitDy=0;exitPerimeter=0;entryX=1;entryY=0.5;entryDx=0;entryDy=0;entryPerimeter=0;" edge="1" parent="YOU5BtBW--oNC1GvZMYw-1" source="YOU5BtBW--oNC1GvZMYw-6" target="YOU5BtBW--oNC1GvZMYw-5">
          <mxGeometry width="160" relative="1" as="geometry">
            <mxPoint x="330" y="465" as="sourcePoint" />
            <mxPoint x="370" y="465" as="targetPoint" />
          </mxGeometry>
        </mxCell>
        <mxCell id="YOU5BtBW--oNC1GvZMYw-69" value="Use" style="endArrow=open;endSize=12;dashed=1;html=1;fontSize=12;fontColor=#666666;exitX=0.5;exitY=1;exitDx=0;exitDy=0;exitPerimeter=0;entryX=0.5;entryY=0;entryDx=0;entryDy=0;entryPerimeter=0;" edge="1" parent="YOU5BtBW--oNC1GvZMYw-1" source="YOU5BtBW--oNC1GvZMYw-4" target="YOU5BtBW--oNC1GvZMYw-7">
          <mxGeometry width="160" relative="1" as="geometry">
            <mxPoint x="330" y="464.9999999999999" as="sourcePoint" />
            <mxPoint x="370" y="464.9999999999999" as="targetPoint" />
          </mxGeometry>
        </mxCell>
        <mxCell id="YOU5BtBW--oNC1GvZMYw-37" value="Title/Page" visible="0" parent="YOU5BtBW--oNC1GvZMYw-0" />
        <mxCell id="YOU5BtBW--oNC1GvZMYw-38" value="" style="group;fontSize=10;" vertex="1" connectable="0" parent="YOU5BtBW--oNC1GvZMYw-37">
          <mxGeometry x="120" y="120" width="560" height="45" as="geometry" />
        </mxCell>
        <mxCell id="YOU5BtBW--oNC1GvZMYw-39" value="&lt;font style=&quot;font-size: 12px&quot;&gt;Base Logical Module -&amp;nbsp;Development - DDD Logical Module&lt;/font&gt;" style="text;strokeColor=none;fillColor=none;html=1;fontSize=24;fontStyle=1;verticalAlign=middle;align=left;shadow=0;glass=0;comic=0;opacity=30;fontColor=#808080;" vertex="1" parent="YOU5BtBW--oNC1GvZMYw-38">
          <mxGeometry width="560" height="40" as="geometry" />
        </mxCell>
        <mxCell id="YOU5BtBW--oNC1GvZMYw-40" value="" style="line;strokeWidth=2;html=1;shadow=0;glass=0;comic=0;fillColor=none;fontSize=10;fontColor=#CCCCCC;labelBackgroundColor=none;strokeColor=#CCCCCC;" vertex="1" parent="YOU5BtBW--oNC1GvZMYw-38">
          <mxGeometry y="35" width="560" height="10" as="geometry" />
        </mxCell>
        <mxCell id="YOU5BtBW--oNC1GvZMYw-41" value="Title/Diagram" parent="YOU5BtBW--oNC1GvZMYw-0" />
        <mxCell id="YOU5BtBW--oNC1GvZMYw-42" value="&lt;font style=&quot;font-size: 12px ; font-weight: normal&quot;&gt;&lt;i&gt;Diagram: Base System Logical Module -&amp;nbsp;Development - DDD Logical Module&lt;/i&gt;&lt;/font&gt;" style="text;strokeColor=none;fillColor=none;html=1;fontSize=24;fontStyle=1;verticalAlign=middle;align=left;shadow=0;glass=0;comic=0;opacity=30;fontColor=#808080;" vertex="1" parent="YOU5BtBW--oNC1GvZMYw-41">
          <mxGeometry x="120" y="640" width="520" height="20" as="geometry" />
        </mxCell>
        <mxCell id="YOU5BtBW--oNC1GvZMYw-43" value="About" parent="YOU5BtBW--oNC1GvZMYw-0" />
      </root>
    </mxGraphModel>
  </diagram>
</mxfile>
